<svg width="97" height="21" viewBox="0 0 97 21" fill="none" xmlns="http://www.w3.org/2000/svg">
<path d="M13.3875 1.84454L8.66553 15.0635L3.96555 1.87457L0.315552 1.88654L6.97552 20.4545L10.3665 20.4435L17.0135 1.83557L13.3875 1.84454Z" fill="#0A337A"/>
<path d="M27.5895 6.3305V7.8305C27.0333 7.24175 26.362 6.77369 25.6173 6.45543C24.8726 6.13717 24.0704 5.97547 23.2605 5.98046C19.6875 5.99146 16.7965 8.95248 16.8105 13.2505C16.8235 17.4705 19.8875 20.4645 23.3835 20.4505C24.1783 20.4577 24.966 20.2991 25.6961 19.9847C26.4261 19.6703 27.0826 19.207 27.6235 18.6245V20.0745L31.0665 20.0635L31.0235 6.31646L27.5895 6.3305ZM23.9995 17.2935C23.4827 17.2851 22.9732 17.1709 22.5022 16.9582C22.0312 16.7455 21.6087 16.4387 21.2607 16.0566C20.9127 15.6745 20.6466 15.2253 20.4787 14.7365C20.3108 14.2477 20.2447 13.7297 20.2845 13.2145C20.2775 10.9625 21.6955 9.1455 23.9745 9.1375C25.0033 9.21146 25.9661 9.67147 26.6701 10.4254C27.374 11.1793 27.767 12.1715 27.7703 13.2029C27.7736 14.2344 27.3869 15.229 26.6878 15.9874C25.9887 16.7458 25.0288 17.212 24.0005 17.2925L23.9995 17.2935Z" fill="#0A337A"/>
<path d="M39.6956 11.7495L38.4246 11.1065C37.6726 10.7205 37.1796 10.4895 37.1786 9.97147C37.1786 9.42747 37.7195 9.14144 38.4185 9.13944C39.3495 9.22516 40.2084 9.67695 40.8065 10.3955L42.9225 8.24045C42.3981 7.53211 41.7137 6.95776 40.925 6.56431C40.1364 6.17085 39.2659 5.96946 38.3846 5.97648C37.8298 5.93593 37.2725 6.0075 36.7461 6.18699C36.2196 6.36648 35.7347 6.65018 35.3202 7.02115C34.9057 7.39213 34.5702 7.84278 34.3337 8.34623C34.0972 8.84968 33.9645 9.39561 33.9435 9.95145C33.9485 11.6855 35.0666 13.0295 37.2706 14.1355L38.4376 14.7275C39.3976 15.2165 39.9675 15.6545 39.9695 16.2505C39.9695 16.8715 39.2996 17.3654 38.4456 17.3684C37.3121 17.2368 36.2769 16.6615 35.5666 15.7685L33.4506 18.1045C34.0072 18.8535 34.7362 19.4573 35.5757 19.8648C36.4153 20.2723 37.3407 20.4715 38.2736 20.4455C41.2736 20.4365 43.2126 18.5915 43.2056 16.1325C43.1986 14.0955 41.9776 12.9075 39.6956 11.7495Z" fill="#0A337A"/>
<path d="M48.9975 6.69573L45.5546 6.70654L45.5978 20.4545L49.0407 20.4437L48.9975 6.69573Z" fill="#0A337A"/>
<path d="M47.2455 0.59857C46.9635 0.592198 46.683 0.641468 46.42 0.74359C46.1571 0.845712 45.9169 0.998682 45.7131 1.19372C45.5093 1.38877 45.346 1.62203 45.2325 1.88025C45.1189 2.13846 45.0575 2.41654 45.0515 2.69855C45.0404 2.9995 45.0887 3.2997 45.1936 3.58197C45.2986 3.86424 45.4582 4.12306 45.6633 4.34363C45.8684 4.56419 46.1148 4.74219 46.3887 4.86743C46.6626 4.99267 46.9585 5.06271 47.2594 5.07355C47.5485 5.07276 47.8346 5.01498 48.1014 4.90356C48.3681 4.79215 48.6103 4.62931 48.8141 4.42425C49.0178 4.2192 49.1791 3.97594 49.2889 3.70849C49.3986 3.44105 49.4545 3.15461 49.4535 2.86554C49.458 2.57154 49.4043 2.27957 49.2957 2.00635C49.187 1.73312 49.0255 1.48401 48.8203 1.27338C48.6152 1.06274 48.3705 0.894738 48.1002 0.778929C47.8299 0.663121 47.5395 0.601828 47.2455 0.59857Z" fill="#0A337A"/>
<path d="M58.0076 6.68958L55.9625 6.69556L55.9465 1.62158L52.5035 1.63257L52.5195 6.7066L50.7595 6.71161L50.7686 9.66357L52.5286 9.65857L52.5626 20.4586L56.0056 20.4476L55.9716 9.64758L58.0165 9.64056L58.0076 6.68958Z" fill="#0A337A"/>
<path d="M68.5176 6.36157L68.5406 13.6886C68.5476 16.0186 67.8006 17.2886 65.9626 17.2956C64.1506 17.3016 63.3695 16.0096 63.3625 13.5496L63.3406 6.37756L59.8976 6.38855L59.9166 12.6796C59.8717 13.6485 59.9183 14.6194 60.0556 15.5796C60.6096 18.7886 62.6556 20.4646 65.9736 20.4546C66.7945 20.512 67.6178 20.3846 68.3831 20.082C69.1483 19.7793 69.836 19.309 70.3956 18.7056C71.8406 17.0956 71.9896 15.2316 71.9816 12.6946L71.9615 6.35156L68.5176 6.36157Z" fill="#0A337A"/>
<path d="M95.4456 7.88548C94.9886 7.3634 94.4213 6.94951 93.7847 6.67381C93.148 6.39811 92.458 6.26752 91.7646 6.29149C90.8513 6.2816 89.9504 6.50332 89.1459 6.93596C88.3415 7.36859 87.6598 7.99803 87.1646 8.76549C86.8029 8.01232 86.2306 7.38024 85.5168 6.94591C84.8031 6.51157 83.9787 6.2936 83.1436 6.31846C82.3306 6.32246 81.5278 6.49881 80.788 6.8358C80.0481 7.17279 79.3882 7.66277 78.8516 8.27348V6.6945L75.4086 6.70549L75.4516 20.4525L78.8946 20.4415L78.8736 13.7105C78.8646 10.8885 80.1026 9.48649 81.8116 9.48149C83.7276 9.47549 84.2506 11.1045 84.2586 13.7715L84.2796 20.4255L87.7226 20.4145L87.7006 13.6315C87.6916 10.8095 88.9296 9.45947 90.6646 9.45347C92.2176 9.45347 93.0236 10.5595 93.0316 12.8115L93.0556 20.3975L96.4986 20.3865L96.4736 12.3345C96.4636 10.5235 96.3556 9.02248 95.4456 7.88548Z" fill="#0A337A"/>
</svg>
