<svg width="343" height="44" viewBox="0 0 343 44" fill="none" xmlns="http://www.w3.org/2000/svg">
<rect x="0.5" y="0.5" width="342" height="43" rx="3.5" fill="#FAFAFA"/>
<rect x="0.5" y="0.5" width="342" height="43" rx="3.5" stroke="#E0E0E0"/>
<path d="M20.768 28.112C20.032 28.112 19.3707 27.984 18.784 27.728C18.208 27.4613 17.7547 27.0987 17.424 26.64C17.0933 26.1707 16.9227 25.632 16.912 25.024H18.464C18.5173 25.5467 18.7307 25.9893 19.104 26.352C19.488 26.704 20.0427 26.88 20.768 26.88C21.4613 26.88 22.0053 26.7093 22.4 26.368C22.8053 26.016 23.008 25.568 23.008 25.024C23.008 24.5973 22.8907 24.2507 22.656 23.984C22.4213 23.7173 22.128 23.5147 21.776 23.376C21.424 23.2373 20.9493 23.088 20.352 22.928C19.616 22.736 19.024 22.544 18.576 22.352C18.1387 22.16 17.76 21.8613 17.44 21.456C17.1307 21.04 16.976 20.4853 16.976 19.792C16.976 19.184 17.1307 18.6453 17.44 18.176C17.7493 17.7067 18.1813 17.344 18.736 17.088C19.3013 16.832 19.9467 16.704 20.672 16.704C21.7173 16.704 22.5707 16.9653 23.232 17.488C23.904 18.0107 24.2827 18.704 24.368 19.568H22.768C22.7147 19.1413 22.4907 18.768 22.096 18.448C21.7013 18.1173 21.1787 17.952 20.528 17.952C19.92 17.952 19.424 18.112 19.04 18.432C18.656 18.7413 18.464 19.1787 18.464 19.744C18.464 20.1493 18.576 20.48 18.8 20.736C19.0347 20.992 19.3173 21.1893 19.648 21.328C19.9893 21.456 20.464 21.6053 21.072 21.776C21.808 21.9787 22.4 22.1813 22.848 22.384C23.296 22.576 23.68 22.88 24 23.296C24.32 23.7013 24.48 24.256 24.48 24.96C24.48 25.504 24.336 26.016 24.048 26.496C23.76 26.976 23.3333 27.3653 22.768 27.664C22.2027 27.9627 21.536 28.112 20.768 28.112ZM34.6226 23.28C34.6226 23.5573 34.6066 23.8507 34.5746 24.16H27.5666C27.62 25.024 27.9133 25.7013 28.4466 26.192C28.9906 26.672 29.6466 26.912 30.4146 26.912C31.044 26.912 31.5666 26.768 31.9826 26.48C32.4093 26.1813 32.708 25.7867 32.8786 25.296H34.4466C34.212 26.1387 33.7426 26.8267 33.0386 27.36C32.3346 27.8827 31.46 28.144 30.4146 28.144C29.5826 28.144 28.836 27.9573 28.1746 27.584C27.524 27.2107 27.012 26.6827 26.6386 26C26.2653 25.3067 26.0786 24.5067 26.0786 23.6C26.0786 22.6933 26.26 21.8987 26.6226 21.216C26.9853 20.5333 27.492 20.0107 28.1426 19.648C28.804 19.2747 29.5613 19.088 30.4146 19.088C31.2466 19.088 31.9826 19.2693 32.6226 19.632C33.2626 19.9947 33.7533 20.496 34.0946 21.136C34.4466 21.7653 34.6226 22.48 34.6226 23.28ZM33.1186 22.976C33.1186 22.4213 32.996 21.9467 32.7506 21.552C32.5053 21.1467 32.1693 20.8427 31.7426 20.64C31.3266 20.4267 30.8626 20.32 30.3506 20.32C29.6146 20.32 28.9853 20.5547 28.4626 21.024C27.9506 21.4933 27.6573 22.144 27.5826 22.976H33.1186ZM36.0005 23.584C36.0005 22.688 36.1818 21.904 36.5445 21.232C36.9072 20.5493 37.4032 20.0213 38.0325 19.648C38.6725 19.2747 39.3818 19.088 40.1605 19.088C40.9285 19.088 41.5952 19.2533 42.1605 19.584C42.7258 19.9147 43.1472 20.3307 43.4245 20.832V19.232H44.8965V28H43.4245V26.368C43.1365 26.88 42.7045 27.3067 42.1285 27.648C41.5632 27.9787 40.9018 28.144 40.1445 28.144C39.3658 28.144 38.6618 27.952 38.0325 27.568C37.4032 27.184 36.9072 26.6453 36.5445 25.952C36.1818 25.2587 36.0005 24.4693 36.0005 23.584ZM43.4245 23.6C43.4245 22.9387 43.2912 22.3627 43.0245 21.872C42.7578 21.3813 42.3952 21.008 41.9365 20.752C41.4885 20.4853 40.9925 20.352 40.4485 20.352C39.9045 20.352 39.4085 20.48 38.9605 20.736C38.5125 20.992 38.1552 21.3653 37.8885 21.856C37.6218 22.3467 37.4885 22.9227 37.4885 23.584C37.4885 24.256 37.6218 24.8427 37.8885 25.344C38.1552 25.8347 38.5125 26.2133 38.9605 26.48C39.4085 26.736 39.9045 26.864 40.4485 26.864C40.9925 26.864 41.4885 26.736 41.9365 26.48C42.3952 26.2133 42.7578 25.8347 43.0245 25.344C43.2912 24.8427 43.4245 24.2613 43.4245 23.6ZM48.813 20.656C49.069 20.1547 49.4317 19.7653 49.901 19.488C50.381 19.2107 50.9623 19.072 51.645 19.072V20.576H51.261C49.629 20.576 48.813 21.4613 48.813 23.232V28H47.357V19.232H48.813V20.656ZM52.7818 23.6C52.7818 22.6933 52.9631 21.904 53.3258 21.232C53.6884 20.5493 54.1898 20.0213 54.8298 19.648C55.4804 19.2747 56.2218 19.088 57.0538 19.088C58.1311 19.088 59.0164 19.3493 59.7098 19.872C60.4138 20.3947 60.8778 21.12 61.1018 22.048H59.5338C59.3844 21.5147 59.0911 21.0933 58.6538 20.784C58.2271 20.4747 57.6938 20.32 57.0538 20.32C56.2218 20.32 55.5498 20.608 55.0378 21.184C54.5258 21.7493 54.2698 22.5547 54.2698 23.6C54.2698 24.656 54.5258 25.472 55.0378 26.048C55.5498 26.624 56.2218 26.912 57.0538 26.912C57.6938 26.912 58.2271 26.7627 58.6538 26.464C59.0804 26.1653 59.3738 25.7387 59.5338 25.184H61.1018C60.8671 26.08 60.3978 26.8 59.6938 27.344C58.9898 27.8773 58.1098 28.144 57.0538 28.144C56.2218 28.144 55.4804 27.9573 54.8298 27.584C54.1898 27.2107 53.6884 26.6827 53.3258 26C52.9631 25.3173 52.7818 24.5173 52.7818 23.6ZM67.3965 19.072C68.0578 19.072 68.6552 19.216 69.1885 19.504C69.7218 19.7813 70.1378 20.2027 70.4365 20.768C70.7458 21.3333 70.9005 22.0213 70.9005 22.832V28H69.4605V23.04C69.4605 22.1653 69.2418 21.4987 68.8045 21.04C68.3672 20.5707 67.7698 20.336 67.0125 20.336C66.2445 20.336 65.6312 20.576 65.1725 21.056C64.7245 21.536 64.5005 22.2347 64.5005 23.152V28H63.0445V16.16H64.5005V20.48C64.7885 20.032 65.1832 19.6853 65.6845 19.44C66.1965 19.1947 66.7672 19.072 67.3965 19.072Z" fill="#B3B3B3"/>
<g clip-path="url(#clip0_1_216)">
<path fill-rule="evenodd" clip-rule="evenodd" d="M317.958 17.4098C320.247 19.8063 320.159 23.6043 317.763 25.8928C315.366 28.1814 311.568 28.0939 309.28 25.6974C306.991 23.301 307.078 19.503 309.475 17.2144C311.871 14.9258 315.669 15.0133 317.958 17.4098ZM319.824 26.6039C322.338 23.5225 322.222 18.9789 319.404 16.0285C316.353 12.8332 311.289 12.7166 308.094 15.768C304.898 18.8194 304.782 23.8834 307.833 27.0787C310.651 30.0291 315.184 30.3547 318.378 27.9851L320.493 30.1995C320.874 30.5989 321.507 30.6135 321.906 30.2321C322.306 29.8506 322.32 29.2176 321.939 28.8182L319.824 26.6039Z" fill="#B2B2B2"/>
</g>
<defs>
<clipPath id="clip0_1_216">
<rect width="24" height="24" fill="white" transform="translate(303 10)"/>
</clipPath>
</defs>
</svg>
